<svg width="24" height="24" xmlns="http://www.w3.org/2000/svg" fill-rule="evenodd" clip-rule="evenodd"><path d="M23 24h-22v-2h1v-7h-2l3-9h5.429l2.571-2.203v-3.797h5l-1 1.491 1 1.509h-4l3.571 3h5.429l3 9h-2v7h1v2zm-12-5h-1v4h1v-4zm3 0h-1v4h1v-4zm6-4h-16v7h4v-5h8v5h4v-7zm-15 4h2v2h-2v-2zm14 0v2h-2v-2h2zm-14-3h2v2h-2v-2zm12 0h2v2h-2v-2zm.905-8l-1.297 1.513-4.608-3.949-4.608 3.949-1.297-1.513h-1.653l-1.667 5h18.45l-1.667-5h-1.653zm-5.905-.5c1.38 0 2.5 1.12 2.5 2.5s-1.12 2.5-2.5 2.5-2.5-1.12-2.5-2.5 1.12-2.5 2.5-2.5zm0 1.5h-.763v1.8h1.763v-.8h-1v-1z"/></svg>